# xmcd
#
# Track frame offsets:
#	150
#	6335
#	10150
#	20868
#	39612
#	48116
#	69187
#	77521
#	91758
#	110492
#	130126
#	148445
#	178284
#	183013
#	198539
#	205114
#	224266
#
# Disc length: 3414 seconds
#
# Revision: 0
# Processed by: cddbd v1.5.1PL0 Copyright (c) Steve Scherf et al.
# Submitted via: EasyCDDAExtractor 8.0.1.1
#
DISCID=eb0d5411
DTITLE=Larry the Cable Guy - The Right to Bare Arms
DYEAR=2005
DGENRE=Comedy
TTITLE0=GIT-R-DONE!
TTITLE1=Midgets and Gay Bars
TTITLE2=WWJD
TTITLE3=Las Vegas
TTITLE4=Hank Williams Jr. High School
TTITLE5=Hooters and Hooters Airlines
TTITLE6=Dodge Truck, Retards and Stinkbait
TTITLE7=NASCAR
TTITLE8=The Right to Bare Arms
TTITLE9=Family In Stanford
TTITLE10=Faith Healers and Weight Problems
TTITLE11=Romance and Imported Rubbers
TTITLE12=Throwed Outta Penney's
TTITLE13=Shavin', Waxin', Primpin' and Shootin' Quail
TTITLE14=News Items
TTITLE15=Song for a Friend (And Other Things I Think About When I'm Hammered A
TTITLE15=t 4 A.M.)
TTITLE16=Toodler Mail
EXTD=
EXTT0=
EXTT1=
EXTT2=
EXTT3=
EXTT4=
EXTT5=
EXTT6=
EXTT7=
EXTT8=
EXTT9=
EXTT10=
EXTT11=
EXTT12=
EXTT13=
EXTT14=
EXTT15=
EXTT16=
PLAYORDER=
